<svg width="398" height="143" xmlns="http://www.w3.org/2000/svg" xmlns:xlink="http://www.w3.org/1999/xlink" overflow="hidden"><defs><clipPath id="clip0"><rect x="370" y="17" width="398" height="143"/></clipPath><clipPath id="clip1"><rect x="371" y="18" width="397" height="141"/></clipPath><clipPath id="clip2"><rect x="371" y="18" width="397" height="141"/></clipPath><clipPath id="clip3"><rect x="371" y="18" width="397" height="141"/></clipPath></defs><g clip-path="url(#clip0)" transform="translate(-370 -17)"><g clip-path="url(#clip1)"><g clip-path="url(#clip2)"><g clip-path="url(#clip3)"><path d="M163.296 88.3903 163.119 88.3903C163.199 88.3903 163.252 88.4696 163.331 88.4872 163.34 88.4872 163.375 88.4784 163.384 88.4784L163.296 88.3903ZM163.331 88.4872C162.511 88.496 160.449 88.919 158.272 88.919 151.399 88.919 149.019 85.7462 149.019 81.6044L149.019 54.0212 163.031 54.0212C163.824 54.0212 164.441 53.3162 164.441 52.3469L164.441 37.3656C164.441 36.5725 163.736 35.8675 163.031 35.8675L149.019 35.8675 149.019 17.2731C149.019 16.5681 148.579 16.1275 147.786 16.1275L128.751 16.1275C127.958 16.1275 127.517 16.5681 127.517 17.2731L127.517 36.3962C127.517 36.3962 117.911 38.7756 117.294 38.8637 116.589 39.04 116.149 39.6569 116.149 40.3619L116.149 52.3469C116.149 53.3162 116.854 54.0212 117.647 54.0212L127.429 54.0212 127.429 82.9262C127.429 104.429 142.41 106.632 152.632 106.632 157.303 106.632 162.943 105.134 163.824 104.693 164.353 104.517 164.618 103.9 164.618 103.283L164.618 90.0646C164.618 89.1922 164.018 88.6106 163.331 88.4872ZM372.152 69.0906C372.152 53.14 365.719 51.025 358.933 51.73 353.646 52.0825 349.416 54.7262 349.416 54.7262L349.416 85.7462C349.416 85.7462 353.734 88.7428 360.167 88.919 369.244 89.1834 372.152 85.9225 372.152 69.0906ZM393.566 67.6806C393.566 97.9078 383.784 106.544 366.688 106.544 352.236 106.544 344.481 99.2296 344.481 99.2296 344.481 99.2296 344.128 103.283 343.688 103.812 343.423 104.341 342.982 104.517 342.454 104.517L329.411 104.517C328.53 104.517 327.737 103.812 327.737 103.019L327.913 5.11186C327.913 4.31872 328.618 3.61373 329.411 3.61373L348.182 3.61373C348.975 3.61373 349.68 4.31872 349.68 5.11186L349.68 38.335C349.68 38.335 356.906 33.6644 367.481 33.6644L367.393 33.4881C377.968 33.4881 393.566 37.4537 393.566 67.6806ZM316.721 35.8675 316.633 35.8675 298.215 35.8675C297.246 35.8675 296.717 36.5725 296.717 37.5419L296.717 85.4819C296.717 85.4819 291.87 88.919 285.261 88.919 278.651 88.919 276.712 85.9225 276.712 79.3131L276.712 37.4537C276.712 36.6606 276.008 35.9556 275.214 35.9556L256.356 35.9556C255.562 35.9556 254.857 36.6606 254.857 37.4537L254.857 82.4856C254.857 101.873 265.697 106.72 280.59 106.72 292.839 106.72 302.798 99.9346 302.798 99.9346 302.798 99.9346 303.238 103.372 303.503 103.9 303.679 104.341 304.296 104.693 304.912 104.693L316.721 104.693C317.691 104.693 318.219 103.988 318.219 103.195L318.396 37.3656C318.396 36.5725 317.691 35.8675 316.721 35.8675ZM107.865 35.7794 89.0944 35.7794C88.3013 35.7794 87.5962 36.5725 87.5962 37.5419L87.5962 102.226C87.5962 103.988 88.7419 104.605 90.24 104.605L107.16 104.605C108.923 104.605 109.363 103.812 109.363 102.226L109.363 37.3656 109.363 37.2775C109.363 36.4844 108.658 35.7794 107.865 35.7794ZM98.6119 5.99311C91.8262 5.99311 86.4506 11.3687 86.4506 18.1544 86.4506 24.94 91.8262 30.3156 98.6119 30.3156 105.221 30.3156 110.597 24.94 110.597 18.1544 110.597 11.3687 105.221 5.99311 98.6119 5.99311ZM243.93 3.78998 225.336 3.78998C224.542 3.78998 223.837 4.49498 223.837 5.28811L223.837 41.3312 194.668 41.3312 194.668 5.28811C194.668 4.49498 193.963 3.78998 193.17 3.78998L174.399 3.78998C173.606 3.78998 172.901 4.49498 172.901 5.28811L172.901 103.195C172.901 103.988 173.694 104.693 174.399 104.693L193.17 104.693C193.963 104.693 194.668 103.988 194.668 103.195L194.668 61.3356 223.837 61.3356 223.661 103.195C223.661 103.988 224.366 104.693 225.159 104.693L243.93 104.693C244.723 104.693 245.428 103.988 245.428 103.195L245.428 5.28811C245.428 4.49498 244.723 3.78998 243.93 3.78998ZM77.6381 47.1475 77.6381 97.7315C77.6381 98.084 77.55 98.7009 77.1094 98.8771 77.1094 98.8771 66.0938 106.72 47.94 106.72 25.9969 106.72 0 99.8465 0 54.55 0 9.25374 22.7362-0.08751 44.9437 0.000615018 64.155 0.000615018 71.91 4.31874 73.1438 5.11187 73.4963 5.55249 73.6725 5.90499 73.6725 6.34562L69.9713 22.0319C69.9713 22.825 69.1781 23.7944 68.2087 23.53 65.0362 22.5606 60.2775 20.6219 49.0856 20.6219 36.1312 20.6219 22.2075 24.3231 22.2075 53.4925 22.2075 82.6619 35.4263 86.0987 44.9437 86.0987 53.0513 86.0987 55.9594 85.1294 55.9594 85.1294L55.9594 64.8606 43.005 64.8606C42.0356 64.8606 41.3306 64.1556 41.3306 63.3625L41.3306 47.1475C41.3306 46.3544 42.0356 45.6494 43.005 45.6494L75.9638 45.6494C76.9331 45.6494 77.6381 46.3544 77.6381 47.1475Z" fill="#FFFFFF" fill-rule="evenodd" fill-opacity="1" transform="matrix(1.0011 0 0 1 371 35.6253)"/></g></g></g></g></svg>