<svg width="499" height="127" xmlns="http://www.w3.org/2000/svg" xmlns:xlink="http://www.w3.org/1999/xlink" overflow="hidden"><defs><clipPath id="clip0"><rect x="210" y="62" width="499" height="127"/></clipPath><clipPath id="clip1"><rect x="211" y="63" width="498" height="126"/></clipPath><clipPath id="clip2"><rect x="211" y="63" width="498" height="126"/></clipPath><clipPath id="clip3"><rect x="211" y="63" width="498" height="126"/></clipPath></defs><g clip-path="url(#clip0)" transform="translate(-210 -62)"><g clip-path="url(#clip1)"><g clip-path="url(#clip2)"><g clip-path="url(#clip3)"><path d="M158.244 98.7165 164.395 84.4299C171.043 89.3905 179.872 91.9701 188.603 91.9701 195.052 91.9701 199.12 89.4898 199.12 85.7197 199.02 75.2032 160.526 83.4378 160.228 57.0472 160.129 43.6535 172.035 33.3354 188.901 33.3354 198.921 33.3354 208.942 35.8157 216.085 41.4709L210.331 56.0551C203.783 51.8882 195.647 48.9118 187.909 48.9118 182.65 48.9118 179.178 51.3921 179.178 54.5669 179.277 64.885 218.069 59.2299 218.466 84.4299 218.466 98.1213 206.858 107.745 190.191 107.745 177.987 107.745 166.776 104.868 158.244 98.7165M394.271 79.2709C391.195 84.6283 385.441 88.2992 378.794 88.2992 368.972 88.2992 361.035 80.3622 361.035 70.5402 361.035 60.7181 368.972 52.7811 378.794 52.7811 385.441 52.7811 391.195 56.452 394.271 61.8094L411.236 52.3843C404.887 41.074 392.683 33.3354 378.794 33.3354 358.257 33.3354 341.589 50.0032 341.589 70.5402 341.589 91.0772 358.257 107.745 378.794 107.745 392.783 107.745 404.887 100.106 411.236 88.6961ZM226.998 2.48031 248.23 2.48031 248.23 106.356 226.998 106.356ZM419.57 2.48031 419.57 106.356 440.802 106.356 440.802 75.2032 466.002 106.356 493.186 106.356 461.14 69.3496 490.805 34.8236 464.811 34.8236 440.802 63.4961 440.802 2.48031ZM311.329 79.4693C308.254 84.5291 301.904 88.2992 294.761 88.2992 284.939 88.2992 277.002 80.3622 277.002 70.5402 277.002 60.7181 284.939 52.7811 294.761 52.7811 301.904 52.7811 308.254 56.7496 311.329 61.9087ZM311.329 34.8236 311.329 43.2567C307.857 37.4031 299.225 33.3354 290.197 33.3354 271.545 33.3354 256.861 49.8047 256.861 70.4409 256.861 91.0772 271.545 107.745 290.197 107.745 299.225 107.745 307.857 103.677 311.329 97.8236L311.329 106.257 332.561 106.257 332.561 34.8236Z" fill="#FFFFFF" fill-rule="nonzero" fill-opacity="1" transform="matrix(1.00794 0 0 1 211 63)"/><path d="M26.9858 79.3701C26.9858 86.6126 21.1323 92.4661 13.8898 92.4661 6.64724 92.4661 0.793701 86.6126 0.793701 79.3701 0.793701 72.1276 6.64724 66.274 13.8898 66.274L26.9858 66.274ZM33.5339 79.3701C33.5339 72.1276 39.3874 66.274 46.6299 66.274 53.8724 66.274 59.726 72.1276 59.726 79.3701L59.726 112.11C59.726 119.353 53.8724 125.206 46.6299 125.206 39.3874 125.206 33.5339 119.353 33.5339 112.11Z" fill="#E01E5A" fill-rule="nonzero" fill-opacity="1" transform="matrix(1.00794 0 0 1 211 63)"/><path d="M46.6299 26.7874C39.3874 26.7874 33.5339 20.9339 33.5339 13.6913 33.5339 6.44882 39.3874 0.595276 46.6299 0.595276 53.8724 0.595276 59.726 6.44882 59.726 13.6913L59.726 26.7874ZM46.6299 33.4346C53.8724 33.4346 59.726 39.2882 59.726 46.5307 59.726 53.7732 53.8724 59.6268 46.6299 59.6268L13.7906 59.6268C6.54803 59.6268 0.694488 53.7732 0.694488 46.5307 0.694488 39.2882 6.54803 33.4346 13.7906 33.4346Z" fill="#36C5F0" fill-rule="nonzero" fill-opacity="1" transform="matrix(1.00794 0 0 1 211 63)"/><path d="M99.1134 46.5307C99.1134 39.2882 104.967 33.4346 112.209 33.4346 119.452 33.4346 125.306 39.2882 125.306 46.5307 125.306 53.7732 119.452 59.6268 112.209 59.6268L99.1134 59.6268ZM92.5654 46.5307C92.5654 53.7732 86.7118 59.6268 79.4693 59.6268 72.2268 59.6268 66.3732 53.7732 66.3732 46.5307L66.3732 13.6913C66.3732 6.44882 72.2268 0.595276 79.4693 0.595276 86.7118 0.595276 92.5654 6.44882 92.5654 13.6913Z" fill="#2EB67D" fill-rule="nonzero" fill-opacity="1" transform="matrix(1.00794 0 0 1 211 63)"/><path d="M79.4693 99.0142C86.7118 99.0142 92.5654 104.868 92.5654 112.11 92.5654 119.353 86.7118 125.206 79.4693 125.206 72.2268 125.206 66.3732 119.353 66.3732 112.11L66.3732 99.0142ZM79.4693 92.4661C72.2268 92.4661 66.3732 86.6126 66.3732 79.3701 66.3732 72.1276 72.2268 66.274 79.4693 66.274L112.309 66.274C119.551 66.274 125.405 72.1276 125.405 79.3701 125.405 86.6126 119.551 92.4661 112.309 92.4661Z" fill="#ECB22E" fill-rule="nonzero" fill-opacity="1" transform="matrix(1.00794 0 0 1 211 63)"/></g></g></g></g></svg>